<svg viewBox="0 0 20 20" fill="none" xmlns="http://www.w3.org/2000/svg" xmlns:bx="https://boxy-svg.com">
  <circle style="fill: rgb(255, 255, 255);" cx="9.962" cy="9.962" r="10"/>
  <path fill-rule="evenodd" clip-rule="evenodd" d="M 14.693 10.774 C 14.717 10.574 14.733 10.366 14.733 10.15 C 14.733 9.934 14.717 9.726 14.686 9.526 L 16.033 8.47 C 16.152 8.374 16.184 8.198 16.112 8.062 L 14.837 5.846 C 14.757 5.702 14.589 5.654 14.447 5.702 L 12.859 6.342 C 12.525 6.086 12.175 5.878 11.784 5.718 L 11.545 4.022 C 11.52 3.862 11.385 3.75 11.226 3.75 L 8.674 3.75 C 8.516 3.75 8.388 3.862 8.364 4.022 L 8.125 5.718 C 7.734 5.878 7.375 6.094 7.049 6.342 L 5.462 5.702 C 5.319 5.646 5.151 5.702 5.072 5.846 L 3.796 8.062 C 3.716 8.206 3.747 8.374 3.875 8.47 L 5.223 9.526 C 5.191 9.726 5.167 9.942 5.167 10.15 C 5.167 10.358 5.183 10.574 5.214 10.774 L 3.868 11.83 C 3.747 11.926 3.716 12.102 3.788 12.238 L 5.063 14.454 C 5.143 14.598 5.31 14.646 5.454 14.598 L 7.04 13.958 C 7.375 14.214 7.726 14.422 8.116 14.582 L 8.356 16.278 C 8.388 16.438 8.516 16.55 8.674 16.55 L 11.226 16.55 C 11.385 16.55 11.52 16.438 11.536 16.278 L 11.776 14.582 C 12.166 14.422 12.525 14.206 12.852 13.958 L 14.438 14.598 C 14.582 14.654 14.749 14.598 14.829 14.454 L 16.105 12.238 C 16.184 12.094 16.152 11.926 16.025 11.83 L 14.693 10.774 L 14.693 10.774 Z M 9.95 12.55 C 8.635 12.55 7.558 11.47 7.558 10.15 C 7.558 8.83 8.635 7.75 9.95 7.75 C 11.266 7.75 12.342 8.83 12.342 10.15 C 12.342 11.47 11.266 12.55 9.95 12.55 Z" fill="#2F80ED" bx:origin="0.48388 0.46875"/>
</svg>