<svg width="245" height="245" viewBox="0 0 245 245" fill="none" xmlns="http://www.w3.org/2000/svg">
<circle cx="122.5" cy="122.5" r="121.5" stroke="url(#paint0_linear)" stroke-width="2"/>
<g clip-path="url(#clip0)">
<path d="M90.2567 115.232C90.2567 115.843 89.7613 116.338 89.1503 116.338C88.5393 116.338 88.0439 115.843 88.0439 115.232C88.0439 114.621 88.5393 114.125 89.1503 114.125C89.7613 114.125 90.2567 114.621 90.2567 115.232ZM129.03 97.1017C127.487 98.2606 125.652 98.873 123.722 98.873C123.1 98.873 122.525 98.6665 122.062 98.3183C121.6 98.6665 121.025 98.873 120.402 98.873C118.398 98.873 116.506 98.2169 114.931 96.9757C114.451 96.5973 114.368 95.9015 114.747 95.4214C115.125 94.9415 115.821 94.8588 116.301 95.2372C117.482 96.1678 118.9 96.6596 120.402 96.6596C120.707 96.6596 120.956 96.4114 120.956 96.1063V94.3061C119.049 93.8134 117.635 92.0783 117.635 90.0194C117.635 88.7989 118.628 87.806 119.849 87.806H124.276C125.496 87.806 126.489 88.7989 126.489 90.0194C126.489 92.0783 125.076 93.8134 123.169 94.3061V96.1063C123.169 96.4114 123.417 96.6596 123.722 96.6596C125.169 96.6596 126.544 96.2006 127.7 95.3321C128.189 94.9648 128.883 95.0635 129.25 95.5522C129.617 96.041 129.518 96.7348 129.03 97.1017ZM122.062 92.2328C123.283 92.2328 124.276 91.2399 124.276 90.0194H119.849C119.849 91.2399 120.842 92.2328 122.062 92.2328ZM118.243 83.8136L116.607 86.6482C115.026 89.2518 112.027 89.5838 109.996 88.4194C107.985 87.2659 107.297 84.6829 108.457 82.6747L109.983 80.0317C111.347 77.6682 114.381 76.8553 116.744 78.22C118.7 79.3489 119.372 81.8581 118.243 83.8136ZM114.69 85.5415L115.368 84.3669H114.508C113.035 84.3669 113.035 82.1535 114.508 82.1535H116.537C116.699 81.379 116.366 80.5417 115.638 80.1368C114.297 79.3915 112.662 79.827 111.9 81.1385L110.374 83.7814C109.825 84.7327 110.155 85.9477 111.103 86.5026C112.616 87.3883 114.206 86.4672 114.69 85.5415ZM134.128 88.4194C131.948 89.6588 129.017 89.1555 127.518 86.6482L125.881 83.8136C124.752 81.8581 125.425 79.3489 127.38 78.22C129.744 76.8553 132.777 77.6682 134.142 80.0317L135.668 82.6747C136.827 84.6829 136.144 87.2736 134.128 88.4194ZM133.751 83.7814L132.225 81.1385C131.47 79.8318 129.794 79.3824 128.487 80.1368C127.765 80.5533 127.425 81.379 127.587 82.1535H129.616C131.09 82.1535 131.09 84.3669 129.616 84.3669H128.756L129.434 85.5415C129.988 86.5423 131.526 87.3455 133.021 86.5026C133.979 85.9632 134.3 84.7326 133.751 83.7814ZM140.821 82.7317C142.866 87.0136 142.687 91.9307 140.28 96.1C139.805 96.923 139.26 97.6848 138.657 98.3814C140.554 105.375 140.688 112.764 139.039 119.792C138.566 121.811 136.792 123.22 134.726 123.22H132.295C128.644 123.22 125.073 122.39 121.839 120.825C121.001 121.911 119.404 123.22 117.02 123.22H96.2297C94.077 123.22 91.7744 122.34 90.1373 120.499C89.7321 120.043 89.7737 119.349 90.2225 118.936C90.6998 118.497 91.4102 118.603 91.7852 119.022C92.9161 120.285 94.5397 121.007 96.2319 121.007H98.4924C96.5228 118.383 95.7614 114.96 96.6007 111.716C98.0445 106.137 102.612 103.86 105.908 103.386C104.358 100.176 103.199 96.7752 102.477 93.2614C96.1077 96.9337 91.8044 103.124 90.5833 110.452C90.4936 110.989 89.993 111.461 89.3095 111.363C88.7349 111.281 88.2935 110.714 88.3998 110.089C90.2351 99.3069 97.4153 93.4556 102.048 90.9619C101.64 88.1912 102.056 85.3435 103.303 82.7317C101.212 81.1404 99.948 78.6395 99.948 75.9801C99.948 71.3058 103.751 67.503 108.425 67.503C110.307 67.503 112.109 68.1212 113.585 69.2571C116.1 67.7962 119.001 67 122.062 67C125.124 67 128.025 67.7961 130.54 69.2571C132.016 68.1213 133.818 67.5031 135.7 67.5031C140.374 67.5031 144.177 71.3058 144.177 75.9802C144.177 78.6394 142.913 81.1404 140.821 82.7317ZM104.386 80.7631L107.467 75.4268C108.566 73.5233 109.98 71.8983 111.623 70.5962C110.663 70.024 109.564 69.7164 108.425 69.7164C104.971 69.7164 102.162 72.5263 102.162 75.9801C102.161 77.8338 102.993 79.5833 104.386 80.7631ZM119.857 119.747C118.681 119.035 117.562 118.22 116.514 117.305C112.661 113.94 109.454 109.939 107.013 105.522C103.114 105.664 99.696 108.411 98.7496 112.246C97.9609 115.442 99.0349 118.838 101.49 121.007H117.021C118.124 121.007 119.143 120.541 119.857 119.747ZM132.295 121.007C133.227 121.007 133.573 120.049 133.307 119.449C130.587 113.317 126.647 107.861 121.66 103.3H116.315C112.652 103.3 109.26 101.966 106.663 99.6054C109.078 105.727 112.947 111.252 117.97 115.638C121.935 119.1 127.022 121.007 132.295 121.007ZM136.824 100.151C134.321 102.17 131.18 103.3 127.81 103.3H124.861C125.984 104.425 127.05 105.596 128.056 106.811C128.084 106.655 128.113 106.499 128.145 106.344C128.265 105.745 128.849 105.357 129.448 105.478C130.047 105.599 130.435 106.183 130.314 106.782C130.149 107.602 130.033 108.435 129.963 109.264C132.065 112.145 133.858 115.247 135.328 118.549C135.661 119.296 135.703 120.122 135.467 120.88C136.163 120.634 136.706 120.046 136.884 119.287C138.356 113.013 138.331 106.435 136.824 100.151ZM138.363 82.8071L134.741 76.5335C132.095 71.9499 127.355 69.2134 122.062 69.2134C116.77 69.2134 112.03 71.9499 109.383 76.5336L105.761 82.8072C103.559 86.6226 103.559 91.1782 105.761 94.9935C107.964 98.8086 111.909 101.086 116.315 101.086H127.81C132.215 101.086 136.16 98.8086 138.363 94.9933C140.566 91.1781 140.566 86.6225 138.363 82.8071ZM141.963 75.9802C141.963 72.5264 139.153 69.7165 135.7 69.7165C134.561 69.7165 133.462 70.0241 132.502 70.5962C134.145 71.8983 135.559 73.5232 136.658 75.4268L139.739 80.7631C141.131 79.5834 141.963 77.8338 141.963 75.9802Z" fill="url(#paint1_linear)"/>
<g clip-path="url(#clip1)">
<path d="M148.656 102.635C148.837 102.682 148.993 102.568 149.004 102.381C149.004 102.381 149.133 100.071 149.192 99.4334C149.242 98.8967 149.588 96.1765 149.588 96.1765C149.611 95.9911 149.478 95.8508 149.292 95.8647C149.292 95.8647 148.602 95.9163 148.264 95.8846C147.924 95.8527 147.253 95.6732 147.253 95.6732C147.072 95.625 146.915 95.7381 146.904 95.9247C146.904 95.9247 146.74 98.6293 146.69 99.1553C146.629 99.8035 146.323 102.13 146.323 102.13C146.299 102.315 146.431 102.454 146.617 102.439C146.617 102.439 147.254 102.387 147.575 102.415C147.933 102.446 148.656 102.635 148.656 102.635Z" fill="url(#paint2_linear)"/>
<path d="M147.925 110.424C148.106 110.471 148.262 110.357 148.273 110.17C148.273 110.17 148.401 107.86 148.461 107.222C148.511 106.686 148.856 103.966 148.856 103.966C148.88 103.78 148.747 103.64 148.56 103.654C148.56 103.654 147.871 103.705 147.533 103.674C147.193 103.642 146.521 103.462 146.521 103.462C146.341 103.414 146.184 103.527 146.172 103.714C146.172 103.714 146.008 106.418 145.959 106.944C145.898 107.593 145.592 109.919 145.592 109.919C145.567 110.104 145.7 110.243 145.886 110.228C145.886 110.228 146.523 110.176 146.844 110.204C147.202 110.235 147.925 110.424 147.925 110.424Z" fill="url(#paint3_linear)"/>
<path d="M147.194 118.215C147.375 118.262 147.531 118.148 147.541 117.961C147.541 117.961 147.67 115.651 147.73 115.014C147.78 114.477 148.125 111.757 148.125 111.757C148.149 111.571 148.016 111.431 147.829 111.445C147.829 111.445 147.14 111.496 146.802 111.465C146.462 111.433 145.79 111.253 145.79 111.253C145.61 111.205 145.453 111.318 145.441 111.505C145.441 111.505 145.277 114.209 145.228 114.735C145.167 115.384 144.861 117.71 144.861 117.71C144.836 117.895 144.969 118.034 145.155 118.019C145.155 118.019 145.792 117.967 146.113 117.995C146.471 118.026 147.194 118.215 147.194 118.215Z" fill="url(#paint4_linear)"/>
<path d="M152.145 106.006C151.05 106.999 149.673 107.377 149.526 107.249C149.378 107.119 149.78 105.889 150.875 104.896C151.971 103.904 153.346 103.524 153.495 103.654C153.654 103.793 153.241 105.013 152.145 106.006Z" fill="url(#paint5_linear)"/>
<path d="M152.397 108.765C151.227 108.829 150.236 108.272 150.224 108.09C150.211 107.905 151.119 107.248 152.289 107.185C153.46 107.121 154.45 107.675 154.463 107.86C154.476 108.059 153.568 108.702 152.397 108.765Z" fill="url(#paint6_linear)"/>
<path d="M150.089 110.381C149.57 109.556 149.555 108.685 149.677 108.625C149.8 108.563 150.626 109.031 151.145 109.856C151.664 110.681 151.681 111.551 151.557 111.613C151.424 111.678 150.608 111.207 150.089 110.381Z" fill="url(#paint7_linear)"/>
<path d="M139.491 109.442C139.674 109.401 139.76 109.227 139.683 109.057C139.683 109.057 138.838 107.187 138.621 106.652C138.438 106.202 137.593 103.915 137.593 103.915C137.528 103.74 137.345 103.677 137.187 103.775C137.187 103.775 136.686 104.085 136.402 104.201C136.117 104.317 135.538 104.445 135.538 104.445C135.355 104.486 135.268 104.659 135.344 104.829C135.344 104.829 136.325 107.03 136.504 107.471C136.725 108.014 137.437 109.97 137.437 109.97C137.501 110.146 137.683 110.208 137.841 110.109C137.841 110.109 138.3 109.82 138.568 109.709C138.867 109.585 139.491 109.442 139.491 109.442Z" fill="url(#paint8_linear)"/>
<path d="M142.148 115.976C142.33 115.934 142.416 115.761 142.339 115.59C142.339 115.59 141.495 113.72 141.277 113.185C141.094 112.735 140.25 110.448 140.25 110.448C140.185 110.273 140.002 110.21 139.843 110.308C139.843 110.308 139.342 110.618 139.058 110.734C138.774 110.85 138.195 110.979 138.195 110.979C138.012 111.019 137.925 111.192 138.001 111.363C138.001 111.363 138.982 113.563 139.161 114.004C139.382 114.548 140.094 116.503 140.094 116.503C140.158 116.679 140.339 116.741 140.498 116.642C140.498 116.642 140.957 116.353 141.225 116.242C141.524 116.118 142.148 115.976 142.148 115.976Z" fill="url(#paint9_linear)"/>
<path d="M144.805 122.507C144.987 122.465 145.073 122.292 144.997 122.122C144.997 122.122 144.152 120.251 143.935 119.717C143.752 119.266 142.907 116.979 142.907 116.979C142.842 116.804 142.659 116.741 142.501 116.839C142.501 116.839 142 117.15 141.716 117.265C141.431 117.381 140.852 117.51 140.852 117.51C140.669 117.551 140.582 117.723 140.658 117.894C140.658 117.894 141.639 120.094 141.818 120.535C142.04 121.079 142.751 123.035 142.751 123.035C142.815 123.21 142.997 123.273 143.155 123.173C143.155 123.173 143.614 122.884 143.882 122.773C144.181 122.649 144.805 122.507 144.805 122.507Z" fill="url(#paint10_linear)"/>
<path d="M135.239 112.65C136.159 112.085 137.228 112.032 137.324 112.153C137.423 112.276 136.998 113.139 136.079 113.704C135.159 114.27 134.092 114.325 133.994 114.201C133.888 114.069 134.319 113.216 135.239 112.65Z" fill="url(#paint11_linear)"/>
<path d="M136.005 110.108C136.775 110.618 137.061 111.427 136.959 111.545C136.856 111.665 135.894 111.645 135.124 111.135C134.354 110.625 134.067 109.818 134.17 109.698C134.281 109.569 135.235 109.598 136.005 110.108Z" fill="url(#paint12_linear)"/>
</g>
</g>
<defs>
<linearGradient id="paint0_linear" x1="-45.7461" y1="-1.28803e-06" x2="290.544" y2="102.084" gradientUnits="userSpaceOnUse">
<stop stop-color="#4BD8B5"/>
<stop offset="1" stop-color="#49D6DF"/>
</linearGradient>
<linearGradient id="paint1_linear" x1="77.5629" y1="67" x2="154.632" y2="90.3583" gradientUnits="userSpaceOnUse">
<stop stop-color="#4BD8B5"/>
<stop offset="1" stop-color="#49D6DF"/>
</linearGradient>
<linearGradient id="paint2_linear" x1="145.709" y1="95.6621" x2="150.515" y2="96.3452" gradientUnits="userSpaceOnUse">
<stop stop-color="#4BD8B5"/>
<stop offset="1" stop-color="#49D6DF"/>
</linearGradient>
<linearGradient id="paint3_linear" x1="144.978" y1="103.451" x2="149.784" y2="104.134" gradientUnits="userSpaceOnUse">
<stop stop-color="#4BD8B5"/>
<stop offset="1" stop-color="#49D6DF"/>
</linearGradient>
<linearGradient id="paint4_linear" x1="144.247" y1="111.242" x2="149.052" y2="111.925" gradientUnits="userSpaceOnUse">
<stop stop-color="#4BD8B5"/>
<stop offset="1" stop-color="#49D6DF"/>
</linearGradient>
<linearGradient id="paint5_linear" x1="148.744" y1="103.629" x2="154.174" y2="105.452" gradientUnits="userSpaceOnUse">
<stop stop-color="#4BD8B5"/>
<stop offset="1" stop-color="#49D6DF"/>
</linearGradient>
<linearGradient id="paint6_linear" x1="149.432" y1="107.18" x2="153.273" y2="110.287" gradientUnits="userSpaceOnUse">
<stop stop-color="#4BD8B5"/>
<stop offset="1" stop-color="#49D6DF"/>
</linearGradient>
<linearGradient id="paint7_linear" x1="149.239" y1="108.619" x2="152.128" y2="109.206" gradientUnits="userSpaceOnUse">
<stop stop-color="#4BD8B5"/>
<stop offset="1" stop-color="#49D6DF"/>
</linearGradient>
<linearGradient id="paint8_linear" x1="134.496" y1="103.729" x2="140.812" y2="105.039" gradientUnits="userSpaceOnUse">
<stop stop-color="#4BD8B5"/>
<stop offset="1" stop-color="#49D6DF"/>
</linearGradient>
<linearGradient id="paint9_linear" x1="137.153" y1="110.262" x2="143.468" y2="111.572" gradientUnits="userSpaceOnUse">
<stop stop-color="#4BD8B5"/>
<stop offset="1" stop-color="#49D6DF"/>
</linearGradient>
<linearGradient id="paint10_linear" x1="139.81" y1="116.793" x2="146.125" y2="118.103" gradientUnits="userSpaceOnUse">
<stop stop-color="#4BD8B5"/>
<stop offset="1" stop-color="#49D6DF"/>
</linearGradient>
<linearGradient id="paint11_linear" x1="133.351" y1="112.1" x2="137.467" y2="114.047" gradientUnits="userSpaceOnUse">
<stop stop-color="#4BD8B5"/>
<stop offset="1" stop-color="#49D6DF"/>
</linearGradient>
<linearGradient id="paint12_linear" x1="133.622" y1="109.633" x2="137.187" y2="111.184" gradientUnits="userSpaceOnUse">
<stop stop-color="#4BD8B5"/>
<stop offset="1" stop-color="#49D6DF"/>
</linearGradient>
<clipPath id="clip0">
<rect width="70" height="56.2205" fill="white" transform="translate(88 67)"/>
</clipPath>
<clipPath id="clip1">
<rect width="27.559" height="27.559" fill="white" transform="translate(130.441 95.6621)"/>
</clipPath>
</defs>
</svg>
