<svg width="245" height="245" viewBox="0 0 245 245" fill="none" xmlns="http://www.w3.org/2000/svg">
<circle cx="122.5" cy="122.5" r="121.5" stroke="url(#paint0_linear)" stroke-width="2"/>
<path d="M151.748 86.0282H145.51L143.759 72.8179C143.509 71.0443 141.88 69.8007 140.103 70.0265L92.8239 76.2923C91.9671 76.4072 91.1911 76.8585 90.6677 77.5466C90.1419 78.2301 89.9124 79.0958 90.0303 79.9499L94.0196 110.036C94.2315 111.656 95.6127 112.867 97.2468 112.866C97.3868 112.866 97.5265 112.856 97.6653 112.838L100.797 112.425V119.634C100.797 121.43 102.253 122.886 104.049 122.886H151.748C153.544 122.886 155 121.43 155 119.634V89.2804C155 87.4843 153.544 86.0282 151.748 86.0282ZM143.324 86.0282H134.858L143.177 84.9257L143.324 86.0282ZM92.1767 79.6572C92.1386 79.3743 92.2159 79.0878 92.3913 78.8626C92.5657 78.6308 92.8258 78.4784 93.1133 78.4398L140.384 72.1761C140.978 72.1008 141.523 72.5155 141.61 73.1084L142.038 76.3368L92.6049 82.8921L92.1767 79.6572ZM100.797 110.238L97.3867 110.688C96.7932 110.767 96.2481 110.35 96.1693 109.757C96.1693 109.756 96.1693 109.756 96.1693 109.756L93.7507 91.481L100.797 90.5498V110.238ZM100.94 88.3449L93.4602 89.3314L92.8911 85.0428L142.324 78.4864L142.649 80.9711L142.89 82.7761L118.359 86.0282H104.049C102.616 86.0308 101.353 86.9718 100.94 88.3449ZM152.832 119.634C152.832 120.233 152.346 120.718 151.748 120.718H104.049C103.451 120.718 102.965 120.233 102.965 119.634V89.3129C102.965 89.3021 102.971 89.2912 102.971 89.2804C102.971 88.6817 103.456 88.1964 104.055 88.1964H151.748C152.346 88.1964 152.832 88.6817 152.832 89.2804V119.634Z" fill="url(#paint1_linear)"/>
<path d="M137.596 102.313C138.032 101.991 138.417 101.606 138.739 101.171C140.521 103.57 143.911 104.07 146.31 102.287C148.71 100.505 149.21 97.1151 147.427 94.7159C146.404 93.3395 144.79 92.5291 143.075 92.5316C141.362 92.5363 139.754 93.3533 138.739 94.7333C136.961 92.3246 133.568 91.8131 131.159 93.5907C128.751 95.3683 128.239 98.7618 130.017 101.171C131.794 103.579 135.188 104.091 137.596 102.313ZM143.075 94.6997C144.871 94.6997 146.327 96.1557 146.327 97.9518C146.327 99.748 144.871 101.204 143.075 101.204C141.279 101.204 139.823 99.748 139.823 97.9518C139.823 96.1557 141.279 94.6997 143.075 94.6997ZM134.403 94.6997C136.199 94.6997 137.655 96.1557 137.655 97.9518C137.655 99.748 136.199 101.204 134.403 101.204C132.607 101.204 131.151 99.748 131.151 97.9518C131.151 96.1557 132.607 94.6997 134.403 94.6997Z" fill="url(#paint2_linear)"/>
<path d="M109.47 93.6172H107.302V95.7853H109.47V93.6172Z" fill="url(#paint3_linear)"/>
<path d="M124.646 93.6172H111.638V95.7853H124.646V93.6172Z" fill="url(#paint4_linear)"/>
<path d="M124.647 97.9531H107.302V100.121H124.647V97.9531Z" fill="url(#paint5_linear)"/>
<path d="M147.412 107.709H108.386C107.787 107.709 107.302 108.194 107.302 108.793V115.297C107.302 115.896 107.787 116.381 108.386 116.381H147.412C148.01 116.381 148.496 115.896 148.496 115.297V108.793C148.496 108.194 148.011 107.709 147.412 107.709ZM146.328 114.213H109.47V109.877H146.328V114.213Z" fill="url(#paint6_linear)"/>
<defs>
<linearGradient id="paint0_linear" x1="-45.7461" y1="-1.28803e-06" x2="290.544" y2="102.084" gradientUnits="userSpaceOnUse">
<stop stop-color="#4BD8B5"/>
<stop offset="1" stop-color="#49D6DF"/>
</linearGradient>
<linearGradient id="paint1_linear" x1="77.8633" y1="70" x2="163.398" y2="101.912" gradientUnits="userSpaceOnUse">
<stop stop-color="#4BD8B5"/>
<stop offset="1" stop-color="#49D6DF"/>
</linearGradient>
<linearGradient id="paint2_linear" x1="125.309" y1="92.5312" x2="147.852" y2="104.864" gradientUnits="userSpaceOnUse">
<stop stop-color="#4BD8B5"/>
<stop offset="1" stop-color="#49D6DF"/>
</linearGradient>
<linearGradient id="paint3_linear" x1="106.897" y1="93.6172" x2="109.873" y2="94.5206" gradientUnits="userSpaceOnUse">
<stop stop-color="#4BD8B5"/>
<stop offset="1" stop-color="#49D6DF"/>
</linearGradient>
<linearGradient id="paint4_linear" x1="109.209" y1="93.6172" x2="113.726" y2="101.844" gradientUnits="userSpaceOnUse">
<stop stop-color="#4BD8B5"/>
<stop offset="1" stop-color="#49D6DF"/>
</linearGradient>
<linearGradient id="paint5_linear" x1="104.063" y1="97.9531" x2="107.833" y2="107.108" gradientUnits="userSpaceOnUse">
<stop stop-color="#4BD8B5"/>
<stop offset="1" stop-color="#49D6DF"/>
</linearGradient>
<linearGradient id="paint6_linear" x1="99.6099" y1="107.709" x2="119.666" y2="136.628" gradientUnits="userSpaceOnUse">
<stop stop-color="#4BD8B5"/>
<stop offset="1" stop-color="#49D6DF"/>
</linearGradient>
</defs>
</svg>
