<svg width="245" height="245" viewBox="0 0 245 245" fill="none" xmlns="http://www.w3.org/2000/svg">
<circle cx="122.5" cy="122.5" r="121.5" stroke="url(#paint0_linear)" stroke-width="2"/>
<path d="M101.203 101.203C100.556 101.203 100.031 101.728 100.031 102.375C100.031 103.022 100.556 103.547 101.203 103.547C101.85 103.547 102.375 103.022 102.375 102.375C102.375 101.728 101.85 101.203 101.203 101.203Z" fill="url(#paint1_linear)"/>
<path d="M150.656 117.143V73.5445C152.116 72.4457 153 70.7085 153 68.8594C153 65.6285 150.371 63 147.141 63C143.91 63 141.281 65.6285 141.281 68.8594C141.281 69.8123 141.518 70.7348 141.945 71.5567C136.144 68.9613 129.669 67.6014 123 67.6014C116.331 67.6014 109.856 68.9613 104.055 71.5567C104.482 70.7348 104.719 69.8123 104.719 68.8594C104.719 65.6285 102.09 63 98.8594 63C95.6285 63 93 65.6285 93 68.8594C93 70.7085 93.8839 72.4457 95.3438 73.5445V117.143C93.8497 118.267 93 119.985 93 121.828C93 122.475 93.5246 122.988 94.1719 122.988H103.538C103.541 122.988 103.544 122.989 103.547 122.989C104.053 122.989 104.508 122.67 104.663 122.185L104.664 122.183C104.665 122.179 104.666 122.176 104.667 122.172L115.871 87.1484C120.55 86.1118 125.449 86.1118 130.128 87.1484L141.332 122.172C141.334 122.176 141.335 122.179 141.336 122.183L141.337 122.185C141.489 122.662 141.939 122.989 142.453 122.989C142.455 122.989 142.459 122.988 142.461 122.988H151.828C152.475 122.988 153 122.475 153 121.828C153 119.984 152.15 118.267 150.656 117.143ZM98.8594 65.3438C100.798 65.3438 102.375 66.9209 102.375 68.8594C102.375 70.1107 101.701 71.2779 100.617 71.905C100.085 72.2125 99.4767 72.375 98.8594 72.375C98.2423 72.375 97.6348 72.2126 97.1021 71.9054C96.0176 71.2777 95.3438 70.1105 95.3438 68.8594C95.3438 66.9209 96.9209 65.3438 98.8594 65.3438ZM95.5432 120.656C96.0281 119.282 97.34 118.312 98.8594 118.312C100.401 118.312 101.699 119.305 102.176 120.656H95.5432ZM103.472 118.217C103.148 117.805 102.804 117.466 102.375 117.143V107.062C102.375 106.415 101.85 105.891 101.203 105.891C100.556 105.891 100.031 106.415 100.031 107.062V116.088C99.6469 116.01 99.2543 115.969 98.8594 115.969C98.4645 115.969 98.072 116.01 97.6875 116.088V74.5996C98.0719 74.678 98.4645 74.7188 98.8594 74.7188C99.2543 74.7188 99.6469 74.678 100.031 74.5996V97.6875C100.031 98.3347 100.556 98.8594 101.203 98.8594C101.85 98.8594 102.375 98.3347 102.375 97.6875V93.8292C105.481 91.1648 109.176 89.1295 113.18 87.8681L103.472 118.217ZM143.625 117.143C143.188 117.472 142.846 117.813 142.528 118.217L132.819 87.8682C136.824 89.1296 140.519 91.165 143.625 93.8293V117.143ZM143.625 82.388C142.639 81.8202 141.629 81.2939 140.605 80.8159C140.018 80.5418 139.321 80.7957 139.047 81.382C138.774 81.9684 139.027 82.6658 139.614 82.9396C140.987 83.5806 142.333 84.3131 143.625 85.121V90.8209C131.618 81.7423 114.335 81.7777 102.375 90.8208V85.121C103.667 84.3131 105.013 83.5806 106.386 82.9396C106.973 82.6658 107.226 81.9684 106.952 81.382C106.679 80.7954 105.981 80.5421 105.395 80.8159C104.371 81.294 103.361 81.8202 102.375 82.388V74.9916C114.803 68.312 131.197 68.312 143.625 74.9916V82.388ZM147.141 65.3438C149.079 65.3438 150.656 66.9209 150.656 68.8594C150.656 70.1107 149.982 71.2779 148.899 71.905C148.366 72.2125 147.758 72.375 147.141 72.375C146.524 72.375 145.916 72.2127 145.384 71.9055C144.299 71.2779 143.625 70.1107 143.625 68.8594C143.625 66.9209 145.202 65.3438 147.141 65.3438ZM148.312 74.5996V116.088C147.928 116.01 147.536 115.969 147.141 115.969C146.746 115.969 146.353 116.01 145.969 116.088V74.5996C146.353 74.678 146.746 74.7188 147.141 74.7188C147.536 74.7188 147.928 74.678 148.312 74.5996ZM143.824 120.656C144.31 119.279 145.624 118.312 147.141 118.312C148.682 118.312 149.98 119.305 150.457 120.656H143.824Z" fill="url(#paint2_linear)"/>
<path d="M115.969 79.4062H114.11L116.797 76.7193C117.133 76.3841 117.233 75.88 117.051 75.4421C116.87 75.0043 116.443 74.7188 115.969 74.7188H111.281C110.634 74.7188 110.109 75.2434 110.109 75.8906C110.109 76.5379 110.634 77.0625 111.281 77.0625H113.14L110.453 79.7495C110.117 80.0846 110.017 80.5888 110.199 81.0266C110.38 81.4645 110.807 81.75 111.281 81.75H115.969C116.616 81.75 117.141 81.2254 117.141 80.5781C117.141 79.9309 116.616 79.4062 115.969 79.4062Z" fill="url(#paint3_linear)"/>
<path d="M119.484 78.2344C119.484 80.1729 121.061 81.75 123 81.75C124.939 81.75 126.516 80.1729 126.516 78.2344C126.516 76.2959 124.939 74.7188 123 74.7188C121.061 74.7188 119.484 76.2959 119.484 78.2344ZM123 77.0625C123.646 77.0625 124.172 77.5882 124.172 78.2344C124.172 78.8805 123.646 79.4062 123 79.4062C122.354 79.4062 121.828 78.8805 121.828 78.2344C121.828 77.5882 122.354 77.0625 123 77.0625Z" fill="url(#paint4_linear)"/>
<path d="M132.375 81.75C134.314 81.75 135.891 80.1729 135.891 78.2344C135.891 76.2959 134.314 74.7188 132.375 74.7188C130.436 74.7188 128.859 76.2959 128.859 78.2344C128.859 80.1729 130.436 81.75 132.375 81.75ZM132.375 77.0625C133.021 77.0625 133.547 77.5882 133.547 78.2344C133.547 78.8805 133.021 79.4062 132.375 79.4062C131.729 79.4062 131.203 78.8805 131.203 78.2344C131.203 77.5882 131.729 77.0625 132.375 77.0625Z" fill="url(#paint5_linear)"/>
<path d="M123 91.8281C122.353 91.8281 121.828 92.3528 121.828 93V97.6875C121.828 98.3347 122.353 98.8594 123 98.8594C123.647 98.8594 124.172 98.3347 124.172 97.6875V93C124.172 92.3528 123.647 91.8281 123 91.8281Z" fill="url(#paint6_linear)"/>
<path d="M123 103.547C122.353 103.547 121.828 104.072 121.828 104.719V109.406C121.828 110.053 122.353 110.578 123 110.578C123.647 110.578 124.172 110.053 124.172 109.406V104.719C124.172 104.072 123.647 103.547 123 103.547Z" fill="url(#paint7_linear)"/>
<path d="M123 115.969C122.353 115.969 121.828 116.493 121.828 117.141V121.828C121.828 122.475 122.353 123 123 123C123.647 123 124.172 122.475 124.172 121.828V117.141C124.172 116.493 123.647 115.969 123 115.969Z" fill="url(#paint8_linear)"/>
<defs>
<linearGradient id="paint0_linear" x1="-45.7461" y1="-1.28803e-06" x2="290.544" y2="102.084" gradientUnits="userSpaceOnUse">
<stop stop-color="#4BD8B5"/>
<stop offset="1" stop-color="#49D6DF"/>
</linearGradient>
<linearGradient id="paint1_linear" x1="99.5936" y1="101.203" x2="102.811" y2="102.18" gradientUnits="userSpaceOnUse">
<stop stop-color="#4BD8B5"/>
<stop offset="1" stop-color="#49D6DF"/>
</linearGradient>
<linearGradient id="paint2_linear" x1="81.7969" y1="63" x2="164.151" y2="88.004" gradientUnits="userSpaceOnUse">
<stop stop-color="#4BD8B5"/>
<stop offset="1" stop-color="#49D6DF"/>
</linearGradient>
<linearGradient id="paint3_linear" x1="108.796" y1="74.7187" x2="118.448" y2="77.6485" gradientUnits="userSpaceOnUse">
<stop stop-color="#4BD8B5"/>
<stop offset="1" stop-color="#49D6DF"/>
</linearGradient>
<linearGradient id="paint4_linear" x1="118.172" y1="74.7187" x2="127.823" y2="77.6484" gradientUnits="userSpaceOnUse">
<stop stop-color="#4BD8B5"/>
<stop offset="1" stop-color="#49D6DF"/>
</linearGradient>
<linearGradient id="paint5_linear" x1="127.547" y1="74.7187" x2="137.198" y2="77.6484" gradientUnits="userSpaceOnUse">
<stop stop-color="#4BD8B5"/>
<stop offset="1" stop-color="#49D6DF"/>
</linearGradient>
<linearGradient id="paint6_linear" x1="121.391" y1="91.8281" x2="124.868" y2="92.18" gradientUnits="userSpaceOnUse">
<stop stop-color="#4BD8B5"/>
<stop offset="1" stop-color="#49D6DF"/>
</linearGradient>
<linearGradient id="paint7_linear" x1="121.391" y1="103.547" x2="124.868" y2="103.899" gradientUnits="userSpaceOnUse">
<stop stop-color="#4BD8B5"/>
<stop offset="1" stop-color="#49D6DF"/>
</linearGradient>
<linearGradient id="paint8_linear" x1="121.391" y1="115.969" x2="124.868" y2="116.321" gradientUnits="userSpaceOnUse">
<stop stop-color="#4BD8B5"/>
<stop offset="1" stop-color="#49D6DF"/>
</linearGradient>
</defs>
</svg>
